<?xml version="1.0" encoding="UTF-8" standalone="no"?>
<!-- icon666.com - MILLIONS OF FREE VECTOR ICONS -->

<svg
   id="Icons"
   viewBox="0 0 60 60"
   version="1.1"
   sodipodi:docname="favicon.svg"
   inkscape:version="1.4.2 (ebf0e940d0, 2025-05-08)"
   xmlns:inkscape="http://www.inkscape.org/namespaces/inkscape"
   xmlns:sodipodi="http://sodipodi.sourceforge.net/DTD/sodipodi-0.dtd"
   xmlns:xlink="http://www.w3.org/1999/xlink"
   xmlns="http://www.w3.org/2000/svg"
   xmlns:svg="http://www.w3.org/2000/svg">
  <defs
     id="defs1">
    <linearGradient
       id="linearGradient13"
       inkscape:collect="always">
      <stop
         style="stop-color:#f300cc;stop-opacity:1;"
         offset="0"
         id="stop12" />
      <stop
         style="stop-color:#ff850a;stop-opacity:1;"
         offset="1"
         id="stop13" />
    </linearGradient>
    <linearGradient
       id="linearGradient5"
       inkscape:collect="always">
      <stop
         style="stop-color:#af0093;stop-opacity:1;"
         offset="0"
         id="stop5" />
      <stop
         style="stop-color:#e07100;stop-opacity:1;"
         offset="1"
         id="stop6" />
    </linearGradient>
    <linearGradient
       inkscape:collect="always"
       xlink:href="#linearGradient5"
       id="linearGradient6"
       x1="8.7867994"
       y1="8.7867947"
       x2="51.213211"
       y2="51.213203"
       gradientUnits="userSpaceOnUse"
       spreadMethod="reflect" />
    <linearGradient
       inkscape:collect="always"
       xlink:href="#linearGradient13"
       id="linearGradient8"
       x1="37.388535"
       y1="37.663052"
       x2="22.611256"
       y2="22.885773"
       gradientUnits="userSpaceOnUse" />
  </defs>
  <sodipodi:namedview
     id="namedview1"
     pagecolor="#505050"
     bordercolor="#ffffff"
     borderopacity="1"
     inkscape:showpageshadow="0"
     inkscape:pageopacity="0"
     inkscape:pagecheckerboard="1"
     inkscape:deskcolor="#505050"
     inkscape:zoom="11.55913"
     inkscape:cx="22.233507"
     inkscape:cy="30.625142"
     inkscape:window-width="1920"
     inkscape:window-height="1011"
     inkscape:window-x="0"
     inkscape:window-y="0"
     inkscape:window-maximized="1"
     inkscape:current-layer="Icons" />
  <path
     d="M30,60A30,30,0,1,0,0,30,30.034,30.034,0,0,0,30,60ZM18.01,31a67.918,67.918,0,0,0,1.541,13.953,54.157,54.157,0,0,0-5.781,1.379A35.613,35.613,0,0,1,10.018,31Zm3.978,15.573A56.59,56.59,0,0,1,29,46.024V57.837C26.352,57.006,23.717,52.939,21.988,46.573ZM31,57.837V46.024a56.59,56.59,0,0,1,7.012.549C36.283,52.939,33.648,57.006,31,57.837Zm0-13.812V31h8.99A66.022,66.022,0,0,1,38.5,44.619,58.4,58.4,0,0,0,31,44.025ZM31,29V15.975a58.4,58.4,0,0,0,7.5-.594A66.022,66.022,0,0,1,39.99,29Zm0-15.024V2.163c2.648.831,5.283,4.9,7.012,11.264A56.59,56.59,0,0,1,31,13.976ZM29,2.163V13.976a56.59,56.59,0,0,1-7.012-.549C23.717,7.061,26.352,2.994,29,2.163Zm0,13.812V29H20.01A66.022,66.022,0,0,1,21.5,15.381,58.4,58.4,0,0,0,29,15.975ZM29,31V44.025a58.4,58.4,0,0,0-7.5.594A66.022,66.022,0,0,1,20.01,31ZM20.027,46.9a27.177,27.177,0,0,0,4.646,10.085,20.741,20.741,0,0,1-9.9-8.859A52.141,52.141,0,0,1,20.027,46.9Zm19.946,0a52.141,52.141,0,0,1,5.253,1.226,20.741,20.741,0,0,1-9.9,8.859A27.177,27.177,0,0,0,39.973,46.9Zm.476-1.946A67.918,67.918,0,0,0,41.99,31h7.992A35.617,35.617,0,0,1,46.23,46.332,54.157,54.157,0,0,0,40.449,44.953ZM51.981,31h5.994A27.871,27.871,0,0,1,51.3,48.148c-1.029-.434-2.083-.831-3.157-1.2A37.57,37.57,0,0,0,51.981,31Zm0-2A37.57,37.57,0,0,0,48.14,13.051c1.074-.368,2.128-.765,3.157-1.2A27.871,27.871,0,0,1,57.975,29Zm-2,0H41.99a67.918,67.918,0,0,0-1.541-13.953,54.157,54.157,0,0,0,5.781-1.379A35.617,35.617,0,0,1,49.982,29ZM39.973,13.1A27.177,27.177,0,0,0,35.327,3.016a20.741,20.741,0,0,1,9.9,8.859A52.141,52.141,0,0,1,39.973,13.1Zm-19.946,0a52.141,52.141,0,0,1-5.253-1.226,20.741,20.741,0,0,1,9.9-8.859A27.177,27.177,0,0,0,20.027,13.1Zm-.476,1.946A67.918,67.918,0,0,0,18.01,29H10.018A35.613,35.613,0,0,1,13.77,13.668,54.157,54.157,0,0,0,19.551,15.047ZM8.019,29H2.025A27.871,27.871,0,0,1,8.7,11.852c1.029.434,2.083.831,3.157,1.2A37.57,37.57,0,0,0,8.019,29Zm0,2A37.57,37.57,0,0,0,11.86,46.949c-1.074.368-2.128.765-3.157,1.2A27.871,27.871,0,0,1,2.025,31Zm2.125,18.72q1.32-.532,2.689-.991A26.29,26.29,0,0,0,18.4,55.473,28.092,28.092,0,0,1,10.144,49.72ZM41.6,55.473a26.273,26.273,0,0,0,5.565-6.744q1.369.457,2.689.991A28.092,28.092,0,0,1,41.6,55.473ZM49.856,10.28q-1.32.533-2.689.991A26.273,26.273,0,0,0,41.6,4.527,28.092,28.092,0,0,1,49.856,10.28ZM18.4,4.527a26.273,26.273,0,0,0-5.565,6.744q-1.37-.458-2.689-.991A28.092,28.092,0,0,1,18.4,4.527Z"
     id="path1"
     inkscape:label="Globe"
     style="fill:url(#linearGradient6)" />
  <path
     id="path2"
     style="display:inline;fill:url(#linearGradient8);fill-opacity:1;stroke:none;stroke-width:1.1;stroke-linejoin:miter;stroke-dasharray:none"
     d="m 29,13.976562 -9.449219,30.976563 2.4375,1.619141 L 26.574219,31 h 6.851562 L 38.011719,46.572266 40.449,44.954 31,13.976562 Z M 30,19.369141 32.835938,29 h -5.671876 z"
     sodipodi:nodetypes="ccccccccccccc"
     inkscape:label="A" />
</svg>
